<svg fill="none" height="512" viewBox="0 0 36 36" width="512" xmlns="http://www.w3.org/2000/svg"><g id="36 Multicolor / Flag / mc_36_flag_canada"><g id="mc_36_flag_Canad"><path id="Oval" d="m18 36c9.9411 0 18-8.0589 18-18 0-9.94113-8.0589-18-18-18-9.94113 0-18 8.05887-18 18 0 9.9411 8.05887 18 18 18z" fill="#f0f0f0"/><path id="Shape" clip-rule="evenodd" d="m0 17.9999c0 7.136 4.153 13.302 10.174 16.214v-32.42801c-6.021 2.912-10.174 9.07801-10.174 16.21401zm36 0c0-7.136-4.153-13.30201-10.174-16.21401v32.42801c6.021-2.911 10.174-9.078 10.174-16.214zm-11.74.783-3.13 1.565.782 1.565h-3.13v2.348h-1.565v-2.348h-3.13l.783-1.565-3.13-1.565 1.565-.783v-1.565l3.13 1.565-1.565-3.13h1.565l1.565-2.348 1.565 2.348h1.565l-1.565 3.13 3.131-1.565v1.565z" fill="#d80027" fill-rule="evenodd"/></g></g></svg>