<svg id="_01_Lupa" viewBox="0 0 512 512" xmlns="http://www.w3.org/2000/svg" data-name="01 Lupa"><path d="m502.627 457.373-126.737-126.737c25.203-34.41 40.11-76.812 40.11-122.636 0-114.691-93.309-208-208-208s-208 93.309-208 208 93.309 208 208 208c45.824 0 88.226-14.907 122.636-40.11l126.737 126.737c6.248 6.249 14.438 9.373 22.627 9.373s16.379-3.124 22.627-9.373c12.497-12.496 12.497-32.758 0-45.254zm-438.627-249.373c0-79.402 64.598-144 144-144s144 64.598 144 144-64.598 144-144 144-144-64.598-144-144z"/></svg>