<svg id="Capa_1" enable-background="new 0 0 512 512" viewBox="0 0 512 512" xmlns="http://www.w3.org/2000/svg"><g><path d="m226.894 222.12c16.779-18.68 40.638-31.27 66.127-30.66 26.499-.86 48.298 12.89 67.337 29.78 19.279-23.39 30.858-53.33 30.858-85.92 0-74.58-60.637-135.26-135.203-135.32h-.11c-74.606 0-135.313 60.7-135.313 135.32 0 33.04 11.909 63.37 31.658 86.89zm-24.939-109.5c5.85-5.86 15.349-5.86 21.209 0l19.879 19.88 45.818-45.82c5.86-5.86 15.359-5.86 21.209 0 5.86 5.86 5.86 15.36 0 21.21l-54.057 54.07c-3.297 3.824-7.955 6.962-12.969 6.75-3.84 0-7.68-1.46-10.599-4.39l-30.489-30.49c-5.86-5.86-5.86-15.36-.001-21.21z"/><path d="m352.158 376.819c-.01 0-53.325-52.792-53.325-52.792-1.941-1.923-5.068-1.917-6.998.018-6.821 6.84-21.272 21.331-21.302 21.354-20.399 18.38-43.218 28.09-66.007 28.09-12.671.276-26.51-3.335-38.098-9.65-17.929-9.52-27.208-30-22.599-49.84 2.963-13.63 11.235-21.054 21.339-31.04 8.53-8.59 19.559-19.69 30.659-30.78l-181.096.29c-8.28.01-14.714 6.74-14.704 15.03l-.027 121.06c.01 8.28 6.74 14.98 15.029 14.97l68.662-.13 101.345 101.01c10.059 10.03 26.279 10.11 36.448.3 10.359-10.01 10.229-26.83.3-37.19l20.679 20.6c9.889 9.97 26.619 10.24 36.808-.07 10.149-10.19 10.119-26.67-.07-36.81 10.199 10.25 26.999 9.93 36.818-.08 9.969-9.88 10.219-26.64-.07-36.82 9.874 9.928 25.892 9.969 35.838.86 2.957-2.567 5.137-5.732 6.54-9.26 4.059-9.867 1.669-21.774-6.169-29.12z"/><path d="m496.211 254.059-124.134.24c-14.779.03-28.959-5.8-39.418-16.23-21.229-21.4-56.597-22.24-77.836-1.72-19.539 18.33-64.207 63.6-77.786 77.22-2.06 2.08-3.38 4.57-3.98 7.19-1.48 6.3 1.19 13.27 7.44 16.59 23.929 12.7 49.037 4.61 69.956-14.24l22.129-22.29c11.42-12.926 31.531-13.853 43.808-1.62l56.437 55.89c23.637 21.199 22.948 63.013-1.75 83.1-3.88 3.36-8.15 6.15-12.709 8.32l30.769-.05c39.798-.08 48.298-38.32 48.298-38.32l59.077-.13c8.28-.01 15.499-6.74 15.489-15.03v-123.95c-.021-8.28-7.511-14.98-15.79-14.97z"/></g><g/><g/><g/><g/><g/><g/><g/><g/><g/><g/><g/><g/><g/><g/><g/></svg>