<svg id="Layer_1" enable-background="new 0 0 65 65" height="65" viewBox="0 0 65 65" width="65" xmlns="http://www.w3.org/2000/svg"><path d="m24.816 0h12.408v3.102h-6.204v3.102h-3.102v-3.102h-3.102z"/><path d="m0 0v21.714h21.714v-21.714zm18.612 18.612h-15.51v-15.51h15.51z"/><path d="m43.429 0v21.714h21.714v-21.714zm18.61 18.612h-15.51v-15.51h15.51z"/><path d="m6.204 6.204h9.306v9.306h-9.306z"/><path d="m24.816 6.204h3.102v3.102h-3.102z"/><path d="m31.02 6.204h6.204v6.204h-3.103v-3.102h-3.101z"/><path d="m49.633 6.204h9.306v9.306h-9.306z"/><path d="m24.816 12.408h9.305v3.102h-3.101v3.102h-3.102v-3.102h-3.102z"/><path d="m37.224 15.51h3.102v6.204h-3.102z"/><path d="m24.816 18.612h3.102v6.205h-3.102z"/><path d="m31.02 18.612h3.102v3.103h-3.102z"/><path d="m34.121 21.714h3.103v3.102h3.101v6.204h3.104v6.204h3.1v-6.204h-3.1v-6.204h3.1v3.102h3.104v-3.102h3.101v6.204h-3.101v6.204h3.101v-6.204h3.101v3.102h3.103v-3.102h-3.103v-6.204h3.103v3.102h3.101v-3.102h3.104v6.204h-3.104v6.204h-3.101v3.102h3.101v9.307h-3.101v3.101h-3.103v-6.204h-6.202v-3.101h6.202v-3.103h-15.51v3.103h-6.204v-6.205h3.103v-3.102h-3.103v-3.102h3.103v-3.102h-3.103z"/><path d="m15.51 24.816h6.204v3.102h-6.204z"/><path d="m27.918 24.816h3.102v3.102h3.101v3.102h-6.203z"/><path d="m15.51 31.02h9.306v3.103h-9.306z"/><path d="m6.204 27.918v3.102h-3.102v-3.102h-3.102v12.408h12.408v-3.103h-3.102v-3.102h3.102v-3.101h3.102v-3.102zm0 9.306h-3.102v-3.102h3.102z"/><path d="m31.02 34.122h3.102v3.102h-3.102z"/><path d="m15.51 37.224h6.204v3.103h-6.204z"/><path d="m24.816 37.224h6.204v3.102h-3.102v3.103h-3.102z"/><path d="m62.039 37.224h3.104v3.103h-3.104z"/><path d="m27.918 43.429h3.102v9.305h-3.102v-3.101h-3.102v-3.103h3.102z"/><path d="m40.325 43.429h6.204v3.101h-3.1v3.103h-3.104v3.101h3.104v-3.101h3.1v3.101h3.104v3.102h3.101v-3.102h3.101v9.306h-3.101v-3.102h-3.101v6.205h-3.104v-3.103h-3.1v-3.102h3.1v-3.102h-9.305v-3.102h-3.103v-3.101h3.103v-3.103h3.101z"/><path d="m0 43.429v21.714h21.714v-21.714zm18.612 18.611h-15.51v-15.51h15.51z"/><path d="m6.204 49.633h9.306v9.306h-9.306z"/><path d="m49.633 49.633h3.102v3.102h-3.102z"/><path d="m31.02 52.734h3.101v6.204h-3.101v3.102h3.101v3.103h-6.203v-9.307h3.102z"/><path d="m58.938 55.836h6.204v3.103h-6.204z"/><path d="m34.121 58.938h6.204v6.205h-3.101v-3.103h-3.103z"/><path d="m55.835 62.04h6.204v3.103h-6.204z"/></svg>