<svg width="43" height="43" viewBox="0 0 43 43" fill="none" xmlns="http://www.w3.org/2000/svg">
<circle cx="21.1765" cy="21.1765" r="21.1765" fill="white"/>
<path d="M29.7188 12.5758C27.4742 10.3258 24.4849 9.08829 21.3081 9.08829C14.751 9.08829 9.41526 14.424 9.41526 20.9811C9.41526 23.0758 9.96169 25.1222 11.001 26.9276L9.31348 33.0883L15.6188 31.4329C17.3545 32.3811 19.3099 32.8794 21.3028 32.8794H21.3081C27.8599 32.8794 33.3135 27.5436 33.3135 20.9865C33.3135 17.8097 31.9635 14.8258 29.7188 12.5758V12.5758ZM21.3081 30.8758C19.5295 30.8758 17.7885 30.399 16.2724 29.499L15.9135 29.2847L12.1742 30.2651L13.1706 26.6169L12.9349 26.2419C11.9438 24.6669 11.4242 22.8508 11.4242 20.9811C11.4242 15.5329 15.8599 11.0972 21.3135 11.0972C23.9545 11.0972 26.4349 12.1258 28.2992 13.9954C30.1635 15.8651 31.3099 18.3454 31.3045 20.9865C31.3045 26.4401 26.7563 30.8758 21.3081 30.8758V30.8758ZM26.7295 23.4722C26.4349 23.3222 24.9724 22.6044 24.6992 22.5079C24.426 22.4061 24.2278 22.3579 24.0295 22.6579C23.8313 22.9579 23.2635 23.6222 23.0867 23.8258C22.9153 24.024 22.7385 24.0508 22.4438 23.9008C20.6974 23.0276 19.551 22.3419 18.3992 20.3651C18.0938 19.8401 18.7045 19.8776 19.2724 18.7419C19.3688 18.5436 19.3206 18.3722 19.2456 18.2222C19.1706 18.0722 18.576 16.6097 18.3295 16.0151C18.0885 15.4365 17.842 15.5169 17.6599 15.5061C17.4885 15.4954 17.2903 15.4954 17.092 15.4954C16.8938 15.4954 16.5724 15.5704 16.2992 15.8651C16.026 16.1651 15.2599 16.8829 15.2599 18.3454C15.2599 19.8079 16.326 21.2222 16.4706 21.4204C16.6206 21.6186 18.5653 24.6186 21.5492 25.9097C23.4349 26.724 24.1742 26.7936 25.117 26.6544C25.6903 26.5686 26.8742 25.9365 27.1206 25.2401C27.367 24.5436 27.367 23.949 27.292 23.8258C27.2224 23.6919 27.0242 23.6169 26.7295 23.4722Z" fill="#222222"/>
</svg>
